<mxfile host="Electron" agent="Mozilla/5.0 (Windows NT 10.0; Win64; x64) AppleWebKit/537.36 (KHTML, like Gecko) draw.io/24.7.8 Chrome/128.0.6613.36 Electron/32.0.1 Safari/537.36" version="24.7.8">
  <diagram id="C5RBs43oDa-KdzZeNtuy" name="Page-1">
    <mxGraphModel dx="1932" dy="672" grid="1" gridSize="10" guides="1" tooltips="1" connect="1" arrows="1" fold="1" page="1" pageScale="1" pageWidth="827" pageHeight="1169" math="0" shadow="0">
      <root>
        <mxCell id="WIyWlLk6GJQsqaUBKTNV-0" />
        <mxCell id="WIyWlLk6GJQsqaUBKTNV-1" parent="WIyWlLk6GJQsqaUBKTNV-0" />
        <mxCell id="s01UQe_8-lCWQOqlGUb--0" value="" style="strokeWidth=2;html=1;shape=mxgraph.flowchart.terminator;whiteSpace=wrap;rounded=1;" parent="WIyWlLk6GJQsqaUBKTNV-1" vertex="1">
          <mxGeometry x="369" y="30" width="90" height="30" as="geometry" />
        </mxCell>
        <mxCell id="sTuavB5TXnjjP-7MNM6C-4" style="edgeStyle=orthogonalEdgeStyle;rounded=1;orthogonalLoop=1;jettySize=auto;html=1;entryX=0.5;entryY=0;entryDx=0;entryDy=0;" parent="WIyWlLk6GJQsqaUBKTNV-1" source="sTuavB5TXnjjP-7MNM6C-0" target="sTuavB5TXnjjP-7MNM6C-2" edge="1">
          <mxGeometry relative="1" as="geometry" />
        </mxCell>
        <mxCell id="sTuavB5TXnjjP-7MNM6C-0" value="початок" style="text;html=1;align=center;verticalAlign=middle;whiteSpace=wrap;rounded=0;" parent="WIyWlLk6GJQsqaUBKTNV-1" vertex="1">
          <mxGeometry x="384" y="30" width="60" height="30" as="geometry" />
        </mxCell>
        <mxCell id="sTuavB5TXnjjP-7MNM6C-2" value="" style="shape=parallelogram;html=1;strokeWidth=2;perimeter=parallelogramPerimeter;whiteSpace=wrap;rounded=1;arcSize=12;size=0.23;" parent="WIyWlLk6GJQsqaUBKTNV-1" vertex="1">
          <mxGeometry x="378" y="90" width="71" height="40" as="geometry" />
        </mxCell>
        <mxCell id="sTuavB5TXnjjP-7MNM6C-3" value="x, y, R" style="text;html=1;align=center;verticalAlign=middle;whiteSpace=wrap;rounded=0;" parent="WIyWlLk6GJQsqaUBKTNV-1" vertex="1">
          <mxGeometry x="384" y="95" width="60" height="30" as="geometry" />
        </mxCell>
        <mxCell id="sTuavB5TXnjjP-7MNM6C-38" value="" style="strokeWidth=2;html=1;shape=mxgraph.flowchart.decision;whiteSpace=wrap;rounded=1;" parent="WIyWlLk6GJQsqaUBKTNV-1" vertex="1">
          <mxGeometry x="203" y="151" width="420" height="60" as="geometry" />
        </mxCell>
        <mxCell id="sTuavB5TXnjjP-7MNM6C-39" value="" style="strokeWidth=2;html=1;shape=mxgraph.flowchart.annotation_2;align=left;labelPosition=right;pointerEvents=1;rounded=1;direction=north;" parent="WIyWlLk6GJQsqaUBKTNV-1" vertex="1">
          <mxGeometry x="160" y="180" width="502" height="361" as="geometry" />
        </mxCell>
        <mxCell id="sTuavB5TXnjjP-7MNM6C-40" value="" style="endArrow=none;html=1;rounded=1;exitX=1;exitY=0;exitDx=0;exitDy=0;exitPerimeter=0;" parent="WIyWlLk6GJQsqaUBKTNV-1" edge="1" source="sTuavB5TXnjjP-7MNM6C-39">
          <mxGeometry width="50" height="50" relative="1" as="geometry">
            <mxPoint x="182" y="180.8" as="sourcePoint" />
            <mxPoint x="203" y="180.8" as="targetPoint" />
          </mxGeometry>
        </mxCell>
        <mxCell id="sTuavB5TXnjjP-7MNM6C-41" value="" style="endArrow=none;html=1;rounded=1;" parent="WIyWlLk6GJQsqaUBKTNV-1" edge="1">
          <mxGeometry width="50" height="50" relative="1" as="geometry">
            <mxPoint x="662" y="180" as="sourcePoint" />
            <mxPoint x="623" y="180.39" as="targetPoint" />
          </mxGeometry>
        </mxCell>
        <mxCell id="sTuavB5TXnjjP-7MNM6C-42" value="x &amp;gt;= 0 &amp;amp;&amp;amp; y &amp;gt;= 0 &amp;amp;&amp;amp; (pow(x, 2) + pow(y, 2) &amp;lt;= pow(R, 2))" style="text;html=1;align=center;verticalAlign=middle;whiteSpace=wrap;rounded=0;" parent="WIyWlLk6GJQsqaUBKTNV-1" vertex="1">
          <mxGeometry x="258.5" y="170" width="311" height="20" as="geometry" />
        </mxCell>
        <mxCell id="sTuavB5TXnjjP-7MNM6C-43" value="+" style="text;html=1;align=center;verticalAlign=middle;whiteSpace=wrap;rounded=0;" parent="WIyWlLk6GJQsqaUBKTNV-1" vertex="1">
          <mxGeometry x="611" y="151" width="51" height="20" as="geometry" />
        </mxCell>
        <mxCell id="sTuavB5TXnjjP-7MNM6C-44" value="-" style="text;html=1;align=center;verticalAlign=middle;whiteSpace=wrap;rounded=0;" parent="WIyWlLk6GJQsqaUBKTNV-1" vertex="1">
          <mxGeometry x="152" y="151" width="51" height="20" as="geometry" />
        </mxCell>
        <mxCell id="sTuavB5TXnjjP-7MNM6C-60" style="edgeStyle=orthogonalEdgeStyle;rounded=1;orthogonalLoop=1;jettySize=auto;html=1;entryX=0.5;entryY=0;entryDx=0;entryDy=0;entryPerimeter=0;" parent="WIyWlLk6GJQsqaUBKTNV-1" source="sTuavB5TXnjjP-7MNM6C-2" target="sTuavB5TXnjjP-7MNM6C-38" edge="1">
          <mxGeometry relative="1" as="geometry" />
        </mxCell>
        <mxCell id="sTuavB5TXnjjP-7MNM6C-63" value="" style="strokeWidth=2;html=1;shape=mxgraph.flowchart.terminator;whiteSpace=wrap;rounded=1;" parent="WIyWlLk6GJQsqaUBKTNV-1" vertex="1">
          <mxGeometry x="366" y="401" width="90" height="30" as="geometry" />
        </mxCell>
        <mxCell id="sTuavB5TXnjjP-7MNM6C-64" value="кінець" style="text;html=1;align=center;verticalAlign=middle;whiteSpace=wrap;rounded=0;" parent="WIyWlLk6GJQsqaUBKTNV-1" vertex="1">
          <mxGeometry x="381" y="400" width="60" height="30" as="geometry" />
        </mxCell>
        <mxCell id="SzGh-YdU1fVmeE-iOvCI-0" value="" style="shape=document;whiteSpace=wrap;html=1;boundedLbl=1;rounded=1;" vertex="1" parent="WIyWlLk6GJQsqaUBKTNV-1">
          <mxGeometry x="590" y="220" width="150" height="70" as="geometry" />
        </mxCell>
        <mxCell id="SzGh-YdU1fVmeE-iOvCI-1" value="Точка належить до зафарбованої області (чверть кола)" style="text;html=1;align=center;verticalAlign=middle;whiteSpace=wrap;rounded=0;" vertex="1" parent="WIyWlLk6GJQsqaUBKTNV-1">
          <mxGeometry x="582" y="230" width="158" height="30" as="geometry" />
        </mxCell>
        <mxCell id="SzGh-YdU1fVmeE-iOvCI-2" value="" style="rhombus;whiteSpace=wrap;html=1;" vertex="1" parent="WIyWlLk6GJQsqaUBKTNV-1">
          <mxGeometry x="69" y="213" width="182" height="60" as="geometry" />
        </mxCell>
        <mxCell id="SzGh-YdU1fVmeE-iOvCI-3" value="x &amp;lt;= 0 &amp;amp;&amp;amp; y &amp;lt;= 0 &amp;amp;&amp;amp; y &amp;gt;= x" style="text;html=1;align=center;verticalAlign=middle;whiteSpace=wrap;rounded=0;" vertex="1" parent="WIyWlLk6GJQsqaUBKTNV-1">
          <mxGeometry x="82" y="227" width="150" height="30" as="geometry" />
        </mxCell>
        <mxCell id="SzGh-YdU1fVmeE-iOvCI-8" value="" style="strokeWidth=2;html=1;shape=mxgraph.flowchart.annotation_2;align=left;labelPosition=right;pointerEvents=1;rounded=1;direction=north;" vertex="1" parent="WIyWlLk6GJQsqaUBKTNV-1">
          <mxGeometry x="-43" y="242" width="391" height="207" as="geometry" />
        </mxCell>
        <mxCell id="SzGh-YdU1fVmeE-iOvCI-9" value="" style="endArrow=none;html=1;rounded=1;exitX=1;exitY=1;exitDx=0;exitDy=0;exitPerimeter=0;" edge="1" parent="WIyWlLk6GJQsqaUBKTNV-1" source="SzGh-YdU1fVmeE-iOvCI-8">
          <mxGeometry width="50" height="50" relative="1" as="geometry">
            <mxPoint x="290" y="242.8" as="sourcePoint" />
            <mxPoint x="251" y="243.19" as="targetPoint" />
          </mxGeometry>
        </mxCell>
        <mxCell id="SzGh-YdU1fVmeE-iOvCI-10" value="" style="endArrow=none;html=1;rounded=1;exitX=1;exitY=1;exitDx=0;exitDy=0;exitPerimeter=0;entryX=1;entryY=0;entryDx=0;entryDy=0;entryPerimeter=0;" edge="1" parent="WIyWlLk6GJQsqaUBKTNV-1" target="SzGh-YdU1fVmeE-iOvCI-8">
          <mxGeometry width="50" height="50" relative="1" as="geometry">
            <mxPoint x="69" y="243.4" as="sourcePoint" />
            <mxPoint x="-28" y="244.59" as="targetPoint" />
          </mxGeometry>
        </mxCell>
        <mxCell id="SzGh-YdU1fVmeE-iOvCI-6" value="" style="shape=document;whiteSpace=wrap;html=1;boundedLbl=1;rounded=1;" vertex="1" parent="WIyWlLk6GJQsqaUBKTNV-1">
          <mxGeometry x="-102" y="257" width="150" height="70" as="geometry" />
        </mxCell>
        <mxCell id="SzGh-YdU1fVmeE-iOvCI-7" value="Точка не належить до зафарбованої області" style="text;html=1;align=center;verticalAlign=middle;whiteSpace=wrap;rounded=0;" vertex="1" parent="WIyWlLk6GJQsqaUBKTNV-1">
          <mxGeometry x="-109" y="267" width="158" height="30" as="geometry" />
        </mxCell>
        <mxCell id="SzGh-YdU1fVmeE-iOvCI-4" value="" style="shape=document;whiteSpace=wrap;html=1;boundedLbl=1;rounded=1;" vertex="1" parent="WIyWlLk6GJQsqaUBKTNV-1">
          <mxGeometry x="266.5" y="257" width="150" height="70" as="geometry" />
        </mxCell>
        <mxCell id="SzGh-YdU1fVmeE-iOvCI-5" value="Точка належить до зафарбованої області (трикутник)" style="text;html=1;align=center;verticalAlign=middle;whiteSpace=wrap;rounded=0;" vertex="1" parent="WIyWlLk6GJQsqaUBKTNV-1">
          <mxGeometry x="258.5" y="267" width="158" height="30" as="geometry" />
        </mxCell>
      </root>
    </mxGraphModel>
  </diagram>
</mxfile>
